<svg width="45" height="45" viewBox="0 0 45 45" fill="none" xmlns="http://www.w3.org/2000/svg">
<path d="M40.1351 22.4617C40.1351 12.5509 32.193 4.51645 22.3957 4.51645C12.5984 4.51645 4.65625 12.5509 4.65625 22.4617C4.65625 30.6332 10.0573 37.5241 17.4435 39.6931C16.8804 35.1051 16.2812 30.3506 16.2126 30.3176C14.9483 29.7085 15.2104 28.0122 15.1766 27.8106C15.5378 27.7192 15.8627 27.5658 16.2727 27.5163C17.3965 27.2321 17.8564 27.1782 18.9016 26.8666C20.808 26.2983 23.1249 25.6832 23.9994 25.317C23.9996 25.317 23.9996 25.317 23.9996 25.317C24.5965 24.9342 26.0956 22.3297 25.6141 21.2333C25.0079 21.2723 23.3715 20.1812 22.9473 18.3621C22.932 18.3197 23.1698 17.7615 23.2748 17.6718C23.9252 17.116 24.5208 17.8396 25.4361 18.3769C25.7977 18.5895 27.7444 19.4757 27.9062 19.6891C28.1452 20.0042 28.2559 21.323 28.3133 21.7444C28.3991 22.3759 28.208 23.2564 28.142 23.8852C28.1193 24.1005 27.8335 25.6705 27.7163 25.9459C26.8757 27.9237 24.2954 30.3017 24.0389 30.48C23.8728 31.4546 24.5689 35.7746 25.3794 40.1494C33.7553 38.7135 40.1351 31.3435 40.1351 22.4617Z" fill="#AFE0E4"/>
<path d="M22.3923 4.34745C12.5135 4.34745 4.47656 12.5257 4.47656 22.5781C4.47656 32.6303 12.5135 40.8086 22.3923 40.8086C32.2709 40.8086 40.3079 32.6303 40.3079 22.5781C40.3079 12.5257 32.2709 4.34745 22.3923 4.34745ZM22.3923 4.78391C32.0485 4.78391 39.8765 12.7507 39.8765 22.5781C39.8765 32.4053 32.0485 40.3721 22.3923 40.3721C12.736 40.3721 4.90801 32.4053 4.90801 22.5781C4.90801 12.7507 12.736 4.78391 22.3923 4.78391Z" fill="white"/>
<path d="M19.7164 20.1486L9.52563 24.9183C9.52563 24.9183 3.54965 27.8504 3.81315 28.8484C4.32002 30.7677 18.5323 26.9845 18.5323 26.9845L25.6447 24.8882C25.6447 24.8882 30.8167 23.6276 29.5096 20.5049C28.2026 17.3823 24.2999 18.2214 24.2999 18.2214C24.2999 18.2214 19.8687 19.5397 19.7164 20.1486Z" fill="#E46F36"/>
<path d="M26.4429 23.2883L17.7074 25.4048C17.7074 25.4048 7.48973 28.6423 6.18788 27.0965C6.09839 26.9902 6.2146 26.8196 6.33966 26.6468C7.87028 25.7311 9.52773 24.9177 9.52773 24.9177L19.7185 20.148C19.8708 19.5391 24.302 18.2208 24.302 18.2208C24.302 18.2208 28.2047 17.3817 29.5117 20.5043C29.6351 20.7992 29.7005 21.0774 29.7182 21.3393C28.7 22.7117 26.4429 23.2883 26.4429 23.2883Z" fill="#ED812B"/>
<path d="M20.1185 20.4443C20.1185 20.4443 26.1707 17.6329 28.2971 19.483C29.0262 21.1459 16.1033 24.9162 15.2641 23.9325C14.425 22.9487 20.1185 20.4443 20.1185 20.4443Z" fill="#F18F43"/>
<path d="M27.1498 21.347C27.4665 21.7374 27.9208 22.0335 28.0848 22.5496C28.2912 23.0675 28.0494 23.6624 27.6328 23.9873L27.6143 23.9729C27.9292 23.2757 28.1234 22.6049 27.578 21.9655C27.4374 21.7623 27.2497 21.5875 27.1289 21.3581L27.1498 21.347Z" fill="#CD6430"/>
<path d="M25.1928 20.8663C25.9979 21.816 27.8031 23.2825 26.5948 24.582L26.576 24.5674C27.1013 23.5819 26.4559 22.5049 25.8318 21.7296C25.6176 21.44 25.3608 21.1875 25.1719 20.8776L25.1928 20.8663Z" fill="#CD6430"/>
<path d="M27.8448 21.1152C27.3557 20.5055 26.9834 19.7869 26.3865 19.2721C25.8004 18.7499 25.1182 18.433 24.3516 18.2665L24.3524 18.2427C26.089 18.0371 27.1601 19.8098 27.8448 21.1152Z" fill="#CD6430"/>
<path d="M24.4269 22.3115C23.9376 21.7018 23.5653 20.9832 22.9686 20.4684C22.3824 19.9462 21.7003 19.6291 20.9336 19.4628L20.9345 19.439C22.6709 19.2334 23.7419 21.0061 24.4269 22.3115Z" fill="#CD6430"/>
<path d="M23.8577 24.0527C22.7808 22.5424 21.7675 20.6185 19.8047 20.215C19.8048 20.215 19.8056 20.191 19.8056 20.191C21.8605 20.1037 22.9851 22.562 23.8577 24.0527Z" fill="#CD6430"/>
<path d="M8.16923 26.5599C8.57566 27.082 9.16814 27.5565 9.24289 28.2653C9.26658 28.4959 9.1947 28.7314 9.0554 28.9141L9.03668 28.8994C9.24509 28.2277 8.79721 27.7293 8.46965 27.1942C8.35361 27.0043 8.21525 26.8164 8.14844 26.5709L8.16923 26.5599Z" fill="#CD6430"/>
<path d="M17.7328 25.7559C17.3742 25.0978 17.156 24.3479 16.6704 23.767C16.197 23.1788 15.5851 22.8018 14.8711 22.5648L14.8744 22.5412C16.61 22.5085 17.3173 24.39 17.7328 25.7559Z" fill="#CD6430"/>
<path d="M13.2637 26.6211C12.9181 26.1824 12.7475 25.6598 12.418 25.2152C12.1004 24.7731 11.6412 24.4468 11.1094 24.3231L11.1124 24.3059C12.2542 24.4499 13.029 25.5814 13.2637 26.6211Z" fill="#CD6430"/>
<path d="M14.1855 26.2969C13.9002 25.8273 13.7055 25.3044 13.3398 24.8911C12.9806 24.4766 12.5443 24.1914 12.0312 23.9989L12.0343 23.9816C13.2519 23.9989 13.8339 25.336 14.1855 26.2969Z" fill="#CD6430"/>
<path d="M7.32941 27.2679C7.84445 27.7445 8.5319 28.4759 7.73683 29.0732L7.71812 29.0586C7.88067 28.5831 7.94405 28.1132 7.60269 27.7045C7.51116 27.5631 7.38848 27.4394 7.30859 27.279L7.32941 27.2679Z" fill="#CD6430"/>
<path d="M16.3076 26.116C15.7052 26.3351 14.9302 25.3906 14.4634 23.8925C14.1886 23.0104 13.7689 22.0271 13.8767 21.4363C13.952 21.0237 14.4612 20.8733 14.7089 20.7832C15.3113 20.5643 16.1781 21.6015 16.6449 23.0997C17.1118 24.5978 16.91 25.8971 16.3076 26.116Z" fill="#D7B991"/>
<path d="M15.7876 24.0897C15.2937 24.2693 14.8133 24.1678 14.4822 23.1055C14.2873 22.4799 13.9785 21.7868 14.0839 21.3573C14.1576 21.0572 14.574 20.9307 14.7771 20.8567C15.271 20.6773 16.1099 21.4226 16.4409 22.4849C16.772 23.5474 16.2815 23.9101 15.7876 24.0897Z" fill="#F4DAC0"/>
<path d="M16.3135 26.1555C15.2935 26.4149 14.5853 24.5165 14.3383 23.7514C14.1231 23.0936 13.8315 22.4291 13.7765 21.7203C13.713 21.1975 14.0939 20.8865 14.5451 20.7418C15.6216 20.2829 16.4482 22.2199 16.6953 23.0251C16.9491 23.8594 17.2628 25.6881 16.3136 26.1555C17.1999 25.6443 16.8251 23.8788 16.5578 23.0703C16.3233 22.3844 15.5272 20.5039 14.6094 20.9208C14.2165 21.0493 13.8997 21.2765 13.9529 21.7131C13.9983 22.4012 14.2855 23.0391 14.4786 23.7049C14.6968 24.4549 15.3305 26.3509 16.3135 26.1555Z" fill="#845333"/>
<path d="M18.8115 26.1308C18.2044 26.3342 17.2617 24.9301 16.7056 22.9949C16.3783 21.8556 15.8973 20.572 15.9777 19.8433C16.0338 19.3344 16.5487 19.2061 16.7983 19.1225C17.4054 18.9191 18.3482 20.3232 18.9041 22.2584C19.46 24.1936 19.4185 25.9275 18.8115 26.1308Z" fill="#D7B991"/>
<path d="M18.1613 23.7029C17.6636 23.8697 17.1892 23.3353 16.7926 21.9545C16.5591 21.1416 16.2049 20.2297 16.2904 19.7005C16.3501 19.331 16.6676 19.2902 16.8723 19.2217C17.3701 19.0549 18.3708 20.0143 18.7675 21.395C19.164 22.7755 18.6591 23.5363 18.1613 23.7029Z" fill="#F4DAC0"/>
<path d="M23.0492 24.163C22.2637 24.1742 21.6043 22.3186 21.5762 20.0185C21.5596 18.6642 21.4079 17.0995 21.7404 16.334C21.9727 15.7993 22.6244 15.8379 22.9476 15.8331C23.733 15.822 24.3925 17.6776 24.4205 19.9779C24.4486 22.2783 23.8346 24.1519 23.0492 24.163Z" fill="#D7B991"/>
<path d="M23.0974 21.2313C22.4534 21.2405 21.8898 20.6421 21.8695 18.9788C21.8576 17.9996 21.7353 16.8686 22.0088 16.3145C22.2 15.9276 22.7343 15.9546 22.9992 15.9507C23.6432 15.9417 24.349 17.3554 24.3691 19.0185C24.3893 20.6818 23.7415 21.2222 23.0974 21.2313Z" fill="#F4DAC0"/>
<path d="M23.0464 24.1745C22.621 24.1783 22.349 23.7592 22.1596 23.4269C21.5983 22.35 21.459 21.1037 21.4095 19.9069C21.3735 19.1163 21.324 18.3206 21.3447 17.5079C21.3763 16.5344 21.5215 15.6144 22.7166 15.6268C22.865 15.6233 22.9968 15.6242 23.1444 15.6539C23.8651 15.9385 24.0908 16.793 24.2888 17.4551C24.6788 19.032 24.6629 20.6847 24.3203 22.2644C24.1363 22.903 23.8226 24.105 23.0464 24.1748C23.0464 24.1745 23.046 24.1515 23.046 24.1515C23.2436 24.1499 23.4134 24.0198 23.5381 23.8732C23.9175 23.4147 24.0722 22.8117 24.2023 22.2391C24.3611 21.4607 24.4137 20.6618 24.3971 19.8676C24.3527 18.6907 24.2254 17.4551 23.6526 16.4107C23.5174 16.1805 23.3392 15.962 23.0838 15.8745C22.6165 15.8237 21.9652 15.8444 21.7532 16.3537C21.3801 17.4896 21.6039 18.7267 21.5884 19.9036C21.5946 21.0039 21.8134 23.8924 23.0464 24.1745Z" fill="#845333"/>
<path d="M18.8179 26.1555C17.77 26.3702 16.7624 23.7498 16.5269 22.9288C16.2325 21.927 15.7811 20.9452 15.7892 19.8632C15.7931 19.3724 16.2758 19.0529 16.6927 18.9508C17.8708 18.6143 18.8023 21.2895 19.0337 22.1683C19.3105 23.3325 19.5932 24.6216 19.1741 25.7833C19.106 25.9417 18.991 26.1032 18.8179 26.1555L18.8112 26.1348C19.7107 25.6343 19.1176 23.0535 18.8733 22.2166C18.6471 21.4482 17.6911 18.712 16.6372 19.1974C16.3229 19.2947 16.0038 19.5195 15.9947 19.8813C15.9789 20.915 16.4273 21.8934 16.688 22.8804C16.9358 23.7627 17.7698 26.2084 18.8179 26.1555Z" fill="#845333"/>
<path d="M21.1829 25.8801C20.4177 26.0719 19.5097 24.4574 18.9764 21.9762C18.6625 20.5154 18.1702 18.8582 18.3269 17.9543C18.4363 17.3228 19.0818 17.2154 19.3965 17.1366C20.1617 16.9448 21.2142 18.8006 21.7473 21.2818C22.2806 23.7629 21.9482 25.6883 21.1829 25.8801Z" fill="#D7B991"/>
<path d="M20.7751 22.9177C20.1477 23.0751 19.537 22.5579 19.1496 20.7555C18.9216 19.6943 18.5519 18.4936 18.6968 17.8291C18.798 17.3649 19.2186 17.3333 19.4766 17.2685C20.104 17.1113 21.2047 18.4489 21.5919 20.2512C21.9794 22.0535 21.4025 22.7606 20.7751 22.9177Z" fill="#F4DAC0"/>
<path d="M16.2209 24.6977C16.4766 24.6523 16.7079 24.8854 16.6712 25.1623C16.6209 25.5425 16.4489 25.826 16.2077 25.8685C15.9664 25.9113 15.7197 25.7018 15.5596 25.3589C15.443 25.1091 15.5934 24.8086 15.8491 24.7634L16.2209 24.6977Z" fill="#6F4323"/>
<path d="M16.242 24.5382C16.461 24.4587 16.6873 24.6283 16.7008 24.8775C16.723 25.2889 16.5947 25.6269 16.3511 25.7153C16.1075 25.8039 15.8161 25.6184 15.6035 25.2762C15.4747 25.0691 15.56 24.7861 15.779 24.7066L16.242 24.5382Z" fill="#B69476"/>
<path d="M18.7475 24.3862C18.9092 24.35 19.0684 24.4696 19.0875 24.6468C19.149 25.2177 18.9857 25.6864 18.6717 25.7567C18.3646 25.8255 18.0094 25.4916 17.7971 24.9741C17.7245 24.7971 17.8261 24.5925 18.0017 24.5532L18.7475 24.3862Z" fill="#6F4323"/>
<path d="M18.6965 24.1895C18.8424 24.127 19.0084 24.2133 19.0513 24.3764C19.2002 24.9424 19.1103 25.449 18.8117 25.5772C18.516 25.7043 18.1103 25.4197 17.8272 24.9209C17.7417 24.7703 17.8062 24.5719 17.9583 24.5064L18.6965 24.1895Z" fill="#B69476"/>
<path d="M21.2328 23.895C21.5553 23.83 21.8461 24.1293 21.7921 24.4789C21.7095 25.0125 21.4506 25.42 21.1016 25.4904C20.739 25.5633 20.3805 25.2521 20.1756 24.7434C20.0543 24.4423 20.2294 24.0973 20.5282 24.037L21.2328 23.895Z" fill="#6F4323"/>
<path d="M21.3077 23.6547C21.5559 23.5608 21.8199 23.7478 21.8383 24.0311C21.8769 24.6284 21.6786 25.1382 21.3119 25.2768C20.9402 25.4168 20.5056 25.1343 20.2211 24.6166C20.0916 24.381 20.1915 24.0759 20.431 23.9855L21.3077 23.6547Z" fill="#B69476"/>
<path d="M23.3703 22.3224C23.6811 22.3837 23.8475 22.7611 23.688 23.0557C23.4809 23.438 23.1888 23.6667 22.9192 23.6134C22.6422 23.5587 22.4623 23.2208 22.431 22.7724C22.4086 22.447 22.6754 22.1852 22.9727 22.2439L23.3703 22.3224Z" fill="#6F4323"/>
<path d="M23.4104 22.1614C23.7193 22.1664 23.9333 22.5025 23.822 22.8137C23.6734 23.2298 23.415 23.5093 23.1369 23.5048C22.8439 23.4998 22.6092 23.1812 22.5175 22.7244C22.4578 22.4265 22.6813 22.1492 22.9632 22.154L23.4104 22.1614Z" fill="#B69476"/>
<path d="M14.9844 24.172C15.5257 24.1057 15.9848 23.8832 16.4758 23.6561C16.099 24.0375 15.5201 24.2981 14.9844 24.172Z" fill="#845333"/>
<path d="M17.1562 23.77C17.8067 23.7116 18.3575 23.4602 18.944 23.1859C18.5008 23.652 17.7914 23.9503 17.1562 23.77Z" fill="#845333"/>
<path d="M21.1868 25.8935C19.8586 26.0841 18.9907 22.7415 18.7628 21.7254C18.4927 20.4778 18.0265 19.2376 18.1435 17.923C18.2369 17.2644 18.9556 16.9661 19.5298 16.9301C19.9164 16.9515 20.2084 17.2542 20.4248 17.5206C21.1978 18.567 21.5863 19.8364 21.8609 21.0884C22.0328 21.924 22.1338 22.7781 22.1092 23.634C22.0548 24.3452 21.9688 25.6297 21.1868 25.8935C22.4002 25.2657 21.9659 22.2845 21.6967 21.1266C21.4927 20.1941 20.5048 16.7208 19.2222 17.2011C18.8272 17.2875 18.41 17.5186 18.3474 17.959C18.2281 19.2226 18.6889 20.4597 18.93 21.6868C19.1591 22.7567 19.8839 25.9341 21.1868 25.8935Z" fill="#845333"/>
<path d="M19.5781 22.9427C20.3399 22.9671 21.0304 22.7496 21.7456 22.489C21.1791 22.999 20.2955 23.2534 19.5781 22.9427Z" fill="#845333"/>
<path d="M22.5156 21.366C23.0866 21.4266 23.6024 21.3147 24.1592 21.1971C23.6935 21.5159 23.0288 21.639 22.5156 21.366Z" fill="#845333"/>
<path d="M28.3109 21.7445C28.2535 21.3231 28.1429 20.0043 27.9039 19.6892C27.7421 19.4758 25.7954 18.5896 25.4338 18.377C24.5185 17.8397 23.9229 17.1161 23.2725 17.6719C23.1674 17.7616 22.9297 18.3198 22.945 18.3622C23.3691 20.1813 25.0056 21.2725 25.6118 21.2334C26.0933 22.3298 24.5942 24.9343 23.9973 25.3171C23.9973 25.3171 23.9973 25.3171 23.9971 25.3171C23.1226 25.6833 20.8057 26.2984 18.8993 26.8667C17.854 27.1783 17.3942 27.2322 16.2704 27.5164C16.1825 27.6508 16.1271 27.7939 16.0968 27.9421C15.8408 29.1954 17.4972 30.8262 18.5685 30.8559C18.5533 30.9115 18.5533 30.9115 18.538 30.9674C18.8284 32.6447 19.1878 34.451 19.5722 36.3081C19.8435 37.6194 20.1269 38.9554 20.4089 40.2927C21.0608 40.366 21.7223 40.4072 22.3934 40.4072C23.4108 40.4072 24.4065 40.3158 25.3771 40.1495C24.5666 35.7747 23.8705 31.4547 24.0366 30.4801C24.2931 30.3018 26.8733 27.9238 27.714 25.946C27.8312 25.6706 28.117 24.1006 28.1396 23.8853C28.2057 23.2565 28.3968 22.376 28.3109 21.7445Z" fill="#EFC89D"/>
<path d="M25.0391 20.5024C26.7547 21.5074 27.2364 20.198 27.2364 20.198L26.3686 20.1321C26.1472 20.1153 25.925 20.1493 25.7186 20.2316L25.0391 20.5024Z" fill="#F4DAC0"/>
<path d="M19.5714 36.3084C19.1871 34.4513 18.8277 32.6451 18.5373 30.9677C18.5525 30.9118 18.5525 30.9119 18.5678 30.8562C17.4965 30.8265 15.84 29.1957 16.0961 27.9424C16.1263 27.7943 16.1818 27.6511 16.2696 27.5167C15.8596 27.5662 15.5348 27.7196 15.1735 27.8111C15.2074 28.0127 14.9452 29.709 16.2095 30.318C16.2781 30.351 16.8773 35.1056 17.4405 39.6935C18.3799 39.9694 19.3507 40.1693 20.3474 40.2851C20.3677 40.2875 20.3879 40.2906 20.4082 40.293C20.1261 38.9557 19.8427 37.6197 19.5714 36.3084Z" fill="#D7B991"/>
<path d="M23.7267 25.7576C22.7527 26.1704 20.8563 26.6575 18.3479 27.3884C18.087 27.4087 15.9996 27.9497 16 27.9569C16.0865 29.2586 18.4032 29.7012 19.9851 29.5724C21.5725 29.4432 23.4896 28.9851 24.4384 27.6727C29.9156 20.5454 24.1446 26.0365 23.7267 25.7576Z" fill="#F4DAC0"/>
<path d="M26.1662 23.5759C26.3049 22.7846 26.5267 22.0727 26.7823 21.6618C26.8837 21.4988 26.7696 21.2897 26.5793 21.2797C25.206 21.2066 23.7352 20.3675 22.8924 18.2677C22.6674 17.6442 22.9265 19.8784 23.8791 20.6267C24.0774 21.0815 25.8892 21.1105 25.4819 22.7258C25.4166 22.9853 24.9804 24.6749 24.1675 25.2533C23.9533 25.4059 25.9736 24.6749 26.1662 23.5759Z" fill="#D7B991"/>
<path d="M26.6971 26.4709C26.174 27.2084 24.239 30.0742 22.7539 30.2772C22.7539 30.2772 21.9913 30.6833 19.9846 30.0742C19.4954 29.9256 21.4295 30.9674 22.1117 31.0486C22.7638 31.1263 23.9292 30.5362 24.031 30.4838C24.0364 30.4812 24.0398 30.4789 24.0439 30.4747C24.2021 30.3217 27.5348 27.0882 27.7307 26.1765C27.8444 25.6475 28.2629 23.463 28.3528 22.1166C28.4044 21.3427 28.1479 21.1516 28.172 20.929C27.269 24.2041 27.6905 25.0703 26.6971 26.4709Z" fill="#D7B991"/>
<path d="M16.3008 30.3615C16.6335 33.4241 17.2883 36.6346 17.4422 39.7031C17.1092 38.1772 16.9354 36.5982 16.7652 35.039C16.639 33.6879 16.3296 31.6198 16.3008 30.3615Z" fill="#845333"/>
<path d="M18.6445 31.7293C18.9739 33.7881 19.322 35.8448 19.9287 37.8418C19.1142 35.9177 18.757 33.811 18.6445 31.7293Z" fill="#845333"/>
<path d="M15.1816 27.8087C15.3176 28.1179 15.2764 28.4795 15.3044 28.8031C15.3559 29.8384 16.4109 30.3693 17.2033 30.8187C17.2138 30.8235 17.2065 30.8412 17.1954 30.836C16.3379 30.4366 15.1586 29.9192 15.1172 28.8121C15.1215 28.461 15.1959 28.1472 15.1635 27.814C15.162 27.8036 15.1774 27.7984 15.1816 27.8087Z" fill="#845333"/>
<path d="M19.4385 27.0537C19.537 27.3616 19.4954 27.6928 19.5175 27.9993C19.5417 28.99 20.3946 29.5939 21.1397 30.0918C20.995 30.0303 20.8531 29.9611 20.7104 29.8924C20.0129 29.5284 19.3393 28.8571 19.3937 28.0021C19.3975 27.6772 19.4703 27.3705 19.4385 27.0537Z" fill="#845333"/>
<path d="M22.6797 25.7725C23.5993 25.5566 24.4199 25.0406 24.8548 24.1733C25.0082 23.8992 25.1443 23.6054 25.3199 23.3351C24.9459 24.7117 24.2033 25.7487 22.6797 25.7725Z" fill="#845333"/>
<path d="M26.4849 21.2639C26.2353 21.6834 25.5059 21.437 25.1677 21.2506C23.8718 20.767 22.925 19.3994 23.0937 17.9953C22.9761 19.6237 24.2892 21.0826 25.8612 21.2683C26.0726 21.3002 26.283 21.3785 26.4849 21.2639Z" fill="#845333"/>
<path d="M27.7844 20.0957C27.7764 20.4457 27.5445 20.7205 27.3119 20.956C27.231 21.0201 27.1029 21.1194 27 21.0782C27.4142 20.9695 27.4701 20.2849 27.7844 20.0957Z" fill="#845333"/>
<path d="M25.369 40.1514C24.979 37.7351 24.4248 35.347 24.0801 32.9217C23.9998 32.1204 23.7716 31.2411 23.9584 30.4433C24.8946 29.6267 25.7841 28.6887 26.5602 27.7032C26.947 27.2122 27.3045 26.6983 27.6291 26.1651C27.7597 25.9196 27.7909 25.5685 27.8513 25.2851C27.9512 24.7447 28.0474 23.9663 28.1214 23.4146C28.1874 22.9483 28.2614 22.4848 28.2552 22.0152C28.1702 21.2603 28.1715 20.4276 27.8656 19.7268C27.6522 19.5252 27.344 19.3971 27.0877 19.2485C26.5645 18.9432 25.8835 18.6848 25.4318 18.3671C26.126 18.7239 26.8484 19.0294 27.5388 19.398C27.6829 19.4853 27.8239 19.5363 27.9426 19.6703C28.1137 19.9575 28.1501 20.277 28.2131 20.5947C28.3904 21.5355 28.4577 22.4913 28.277 23.4367C28.17 24.2685 28.0783 25.2087 27.8826 26.0196C27.8626 26.0976 27.8287 26.1988 27.7862 26.2612C27.1395 27.3512 26.3331 28.3337 25.4687 29.2515C25.0305 29.7088 24.5928 30.1489 24.0872 30.5537L24.1167 30.5184C24.0071 30.8632 24.0645 31.3168 24.0829 31.6898C24.3126 34.4475 25.0525 37.4637 25.369 40.1514Z" fill="#845333"/>
<path d="M25.5024 18.8136C25.5024 18.8136 25.6927 19.1909 25.4412 19.4019C25.1896 19.6127 24.799 19.5248 24.4363 19.3094C24.0735 19.094 23.4142 17.7414 23.9352 17.8586C24.4562 17.976 25.5024 18.8136 25.5024 18.8136Z" fill="#6F4323"/>
<path d="M25.5257 18.6152C25.5257 18.6152 25.7162 18.9925 25.4647 19.2035C25.2132 19.4146 24.8225 19.3266 24.4596 19.111C24.097 18.8956 23.4375 17.543 23.9587 17.6604C24.4797 17.7776 25.5257 18.6152 25.5257 18.6152Z" fill="#B69476"/>
<path d="M38.4507 12.6442C38.2091 12.9336 38.0835 13.6592 37.8717 14.014C37.0535 15.3839 37.5876 13.4323 37.7964 13.0351C38.0106 12.6277 38.2511 12.5943 38.3687 12.4356C39.2855 11.1972 38.6671 11.6005 38.5637 11.4475C38.3469 11.1263 39.2366 10.0958 37.7755 11.0324C37.5179 9.94084 36.775 11.6262 36.666 11.6773C36.4397 11.7836 36.3032 11.0992 35.7589 11.8004C35.6985 10.6248 35.0895 11.7373 34.7484 11.5527C34.6373 11.4924 34.8274 11.0296 34.3711 11.1642C34.2911 11.1878 33.9231 11.7454 33.5514 11.7423C33.3091 12.4758 33.3091 12.4758 33.0667 13.2092C32.482 12.7939 32.482 12.7939 31.8977 12.3787C31.8603 12.4819 31.7331 12.5131 31.7378 12.8125C31.7415 13.0449 31.9093 13.2956 31.8698 13.3989C31.8554 13.4366 31.6463 13.3354 31.603 13.4351C31.5436 13.5713 31.7792 14.2486 31.7708 14.2914C31.7417 14.4374 31.4507 14.3571 31.4187 14.504C31.3959 14.6083 31.8845 15.3553 32.0141 16.5387C32.24 16.3984 32.24 16.3984 32.4657 16.2579C32.6031 16.0462 32.6682 16.5199 32.6758 16.614C33.0095 16.3334 33.4465 14.315 33.7505 14.2705C34.2941 14.5166 35.277 14.6 35.4051 14.8704C35.4854 14.6408 36.2535 14.9629 36.8123 15.0367C36.6503 15.381 35.2824 16.6315 35.2588 16.8407C35.1941 17.4166 35.8957 17.0059 36.1362 17.5186C36.1966 17.3728 36.3135 17.495 36.3228 17.4932C36.3401 17.4902 36.3601 17.4915 36.3763 17.486C36.7795 17.3488 38.3653 15.0203 38.8416 14.5694C39.1632 14.8832 37.9474 16.2991 38.2095 16.3585C39.3544 16.0562 40.5426 16.0095 41.7135 16.1581C41.753 16.0145 42.302 15.6614 42.4763 15.5602C42.5436 15.5211 43.5491 15.4845 43.1444 14.4531C42.8415 13.6815 41.8063 14.361 41.707 14.2633C42.3147 13.5619 43.3604 12.2933 42.1255 12.5033C42.3367 12.0672 42.4304 11.3362 41.7674 11.6452C41.2644 11.8796 40.3476 13.4281 40.5178 12.6663C40.6181 12.2167 41.2594 11.5575 40.0639 12.3156C39.8883 11.0102 38.9909 12.7337 38.8724 12.752C38.636 12.7883 38.8433 12.1742 38.4507 12.6442Z" fill="#7CA934"/>
<path d="M42.5671 24.4492C39.7245 22.774 39.7245 22.774 36.8817 21.0989C36.6565 21.1186 36.2863 20.9331 36.2147 21.1893C35.8893 22.029 35.3418 21.5777 36.2013 22.3175C36.1665 22.3633 36.1665 22.3633 36.1318 22.4094C35.9689 22.2642 35.7651 22.1953 35.575 22.1001C34.9313 21.799 34.9402 22.1261 34.9009 22.1366C34.8815 22.1418 34.8778 22.0816 34.5859 22.0144C35.753 22.6049 35.3794 23.4599 35.4053 23.689C35.4743 24.3027 35.6175 24.8094 35.6158 24.8694C35.6149 24.9033 35.4171 25.2396 35.3707 25.4796C35.2424 26.1439 35.6423 25.6677 35.6984 25.9023C35.7094 25.9485 35.3578 26.5015 35.3254 26.7769C35.1453 28.3045 35.8335 26.9391 35.9249 26.998C36.036 29.1085 36.5408 28.0488 36.6621 28.0519C36.8062 28.0558 36.903 28.6198 37.2065 28.4725C37.4441 28.3576 37.1809 27.1669 37.4013 27.0724C37.6801 26.9533 37.6501 27.4978 37.7165 27.6066C38.0703 28.1876 38.2474 27.6175 38.2875 27.6117C38.3143 27.608 38.5779 27.8672 38.7574 27.8777C39.4954 27.9209 39.0294 27.3867 39.1804 27.3808C39.262 27.3777 40.3177 28.2469 40.4912 27.2306C40.6931 26.0481 39.4639 25.2516 40.0968 25.2786C40.2273 25.284 40.9977 26.0968 41.5914 25.9001C42.2109 25.695 41.8131 24.9593 41.8752 24.7627C42.0489 24.675 43.5262 25.4556 42.5671 24.4492Z" fill="#5D902D"/>
<path d="M42.4768 15.5598C42.3025 15.661 41.7535 16.0141 41.714 16.1577C40.543 16.0091 39.3548 16.0558 38.21 16.3581C37.9479 16.2987 39.1637 14.8828 38.842 14.569C38.3657 15.0199 36.7799 17.3484 36.3768 17.4856C36.2518 17.7141 36.0234 18.1955 35.8098 18.3317C35.2863 18.6654 31.1245 19.6993 30.1348 19.9802C29.633 20.1225 29.2201 20.3005 28.7227 20.3913C28.7716 20.7073 28.8271 21.0451 28.8514 21.3629C28.8527 21.381 28.8573 21.3989 28.8586 21.417C28.9075 21.4168 28.9084 21.3502 28.9582 21.3485C28.9321 21.0497 28.9321 21.0497 28.9062 20.7512C29.1804 20.7062 29.4596 20.6866 29.7333 20.639C30.2291 20.5524 30.725 20.4771 31.2201 20.3826C31.2729 20.3723 31.3273 20.3706 31.3802 20.3608C31.378 20.215 31.1347 20.0177 31.2056 19.8623C31.2609 19.7412 33.4412 19.248 33.7471 19.1607C33.9725 19.0964 35.3167 18.5427 35.4045 18.5515C35.5158 18.5626 35.733 18.8655 35.6981 18.9237C35.6349 19.0294 35.2211 18.9078 35.2891 19.1167C35.5488 19.0612 35.7492 18.9894 36.029 18.9613C36.465 18.9176 36.407 18.7933 36.0152 19.6775C36.6373 19.6343 37.2537 19.588 37.8775 19.5898C38.2244 20.0088 38.8576 19.8807 39.2849 20.1685C39.4247 20.0976 39.4821 20.0509 39.6512 20.0638C40.3092 20.1135 40.9223 20.1919 41.5671 19.9691C42.0956 20.5452 43.6715 20.1794 43.9042 19.9819C44.0887 19.8252 43.7489 19.7353 43.9077 19.5968C45.109 19.8043 44.5246 19.3144 44.5887 19.2022C44.6554 19.0855 45.3888 19.4139 44.7235 18.5796C44.9196 17.4887 43.9055 18.2837 43.6007 18.0997C43.33 17.9365 44.0358 17.1816 42.6931 17.3986C42.3327 17.457 40.9451 18.3422 40.8988 17.9991C41.9789 17.679 41.536 17.3706 41.5973 17.3274C41.6542 17.2873 42.8772 17.1225 42.6765 16.659C42.6094 16.504 41.6659 16.5662 41.8119 16.2819C41.8809 16.1472 43.1291 16.1649 42.4768 15.5598Z" fill="#5D902D"/>
<path d="M39.6512 20.0636C39.4821 20.0507 39.4247 20.0974 39.2849 20.1684C39.7257 20.4649 39.0921 20.2157 38.8315 20.2297C38.0818 20.27 37.1739 20.5173 36.459 20.7711C34.5457 20.2901 33.1774 20.2528 31.2343 20.4902C30.7283 20.5522 30.0651 20.7144 29.7333 20.6388C29.4596 20.6864 29.1804 20.7061 28.9062 20.751C28.9321 21.0496 28.9321 21.0496 28.9582 21.3483C30.0571 21.3106 31.2732 21.2957 32.3645 21.436C33.3368 21.5609 34.0737 21.8961 34.5867 22.0139C34.8786 22.0811 34.8822 22.1413 34.9016 22.1361C34.9409 22.1256 34.9321 21.7985 35.5758 22.0997C33.9799 21.3001 32.8326 21.05 31.0603 20.816C32.783 20.7002 34.5364 20.7475 36.2154 21.1888C36.287 20.9326 36.8056 20.8833 36.8824 21.0984C38.0799 24.4472 39.7252 22.7735 42.5678 24.4487C42.5851 24.0192 43.2217 24.4921 43.4698 24.4912C44.1968 24.4888 44.3965 23.7649 43.6984 23.5537C45.1192 22.9193 42.8912 22.6173 42.8547 22.5141C42.7654 22.2609 43.6208 22.506 43.4378 21.9956C43.4072 21.9105 43.0232 21.7474 43.0215 21.7223C43.0131 21.6082 43.3479 21.6279 43.4268 21.5024C43.8246 20.8721 42.4766 20.9206 42.2117 21.1451C42.0753 20.4634 41.7897 20.8547 41.3542 20.8219C40.8794 20.7862 39.3378 20.6225 39.6512 20.0636Z" fill="#669F34"/>
<path d="M32.4618 18.6761C32.4219 18.6543 32.4439 18.7137 32.4012 18.6294C32.3448 18.5181 32.4508 18.4245 32.4223 18.3793C32.2758 18.1445 31.1633 19.2084 31.4336 18.7056C31.4401 18.6936 31.397 18.6536 31.5188 18.529C31.6204 18.3719 31.3603 18.3656 31.3728 18.2469C31.4034 17.9547 32.7599 17.6245 32.6773 16.6139C32.6697 16.5198 32.6046 16.0461 32.4672 16.2577C32.4305 16.402 32.6658 16.8836 32.6633 16.9179C32.6205 17.4831 29.307 19.3919 28.6094 19.5279C28.6689 19.7974 28.6806 20.1123 28.7237 20.3916C29.2212 20.3008 29.6341 20.1227 30.1358 19.9805C30.1307 19.944 30.1097 19.8844 30.1483 19.8687C31.1862 19.448 32.286 19.1268 33.337 18.7224C33.349 18.3193 32.9756 18.8365 32.9439 18.8306C32.9096 18.8241 32.843 18.636 32.8084 18.629C32.728 18.6131 32.698 18.8057 32.4618 18.6761Z" fill="#71BB3C"/>
<path d="M32.676 16.6134C32.7586 17.624 31.4022 17.9542 31.3715 18.2464C31.359 18.3651 31.6192 18.3715 31.5176 18.5286C31.5769 18.4681 32.7502 17.5983 32.8777 17.5202C34.2659 16.668 32.6389 18.1292 31.4324 18.7051C31.1621 19.2079 32.2746 18.1441 32.421 18.3789C32.4495 18.4241 32.3436 18.5177 32.3999 18.629C33.2488 17.9643 33.2488 17.9643 34.0978 17.2997C33.8739 17.8811 34.3559 17.6509 34.4894 17.7962C34.4965 17.8501 34.4965 17.8501 34.5036 17.9042C33.482 18.2898 33.482 18.2898 32.4605 18.6757C32.6967 18.8053 32.7267 18.6126 32.8072 18.6285C32.8417 18.6355 32.9084 18.8236 32.9427 18.8302C32.9744 18.8361 33.3478 18.3189 33.3357 18.7219C34.3427 18.3344 35.3495 17.9629 36.323 17.4927C36.3138 17.4944 36.1968 17.3722 36.1364 17.518C35.8959 17.0054 35.1944 17.4161 35.2591 16.8402C35.2826 16.6309 36.6505 15.3804 36.8125 15.0361C36.2538 14.9623 35.4856 14.6402 35.4054 14.8698C35.2772 14.5994 34.2944 14.516 33.7508 14.2699C33.4468 14.3144 33.0097 16.3328 32.676 16.6134Z" fill="#7CA934"/>
<path d="M36.0277 18.9618C36.6369 19.2041 34.9273 19.3935 34.0625 19.503C34.0554 19.4491 34.0554 19.4491 34.0483 19.395C34.4648 19.3149 34.8728 19.2058 35.2878 19.1172C35.2199 18.9084 35.6336 19.0299 35.6968 18.9243C35.7318 18.866 35.5145 18.5631 35.4032 18.552C35.3154 18.5433 33.9712 19.0969 33.7458 19.1613C33.4399 19.2486 31.2596 19.7418 31.2044 19.8629C31.1334 20.0183 31.3767 20.2156 31.3789 20.3613C32.9343 20.0713 34.4195 19.7889 36.0139 19.6781C36.4057 18.7938 36.4637 18.9182 36.0277 18.9618Z" fill="#669F34"/>
<path d="M31.2211 20.3831C30.7261 20.4776 30.2301 20.5529 29.7344 20.6395C30.0662 20.715 30.7293 20.5529 31.2354 20.4909C31.2283 20.437 31.2283 20.437 31.2211 20.3831Z" fill="#95D379"/>
<path d="M3.96813 31.0505C4.13456 30.978 4.21038 30.7854 4.14088 30.6219C4.06546 30.4438 3.91858 30.3766 3.77093 30.4408C3.55689 30.5337 3.61563 30.8446 3.63527 31.1156C3.67023 31.6758 3.56138 32.0423 3.07136 32.2556C2.5672 32.4749 1.96282 32.2191 1.73168 31.6751C1.45975 31.0355 1.73522 30.5563 2.24672 30.2885L2.5291 30.9523C2.36748 31.0226 2.2769 31.1817 2.3609 31.379C2.4262 31.5328 2.57999 31.6425 2.76564 31.562C2.97951 31.4689 2.90526 31.188 2.87223 30.9113C2.80566 30.3303 2.98878 29.9657 3.43572 29.7715C3.93989 29.5522 4.54241 29.8031 4.77355 30.347C5.04127 30.9769 4.77414 31.5149 4.26037 31.7384L3.96813 31.0505Z" fill="white"/>
<path d="M1.08105 29.7305L0.886144 28.992L2.76632 28.4838C3.16657 28.3755 3.25573 28.1457 3.18774 27.8878C3.1129 27.6043 2.92583 27.4651 2.52598 27.5733L0.64573 28.0813L0.449219 27.3374L2.43987 26.7999C3.14999 26.6079 3.69139 27.0363 3.86768 27.7038C4.05063 28.3969 3.7615 29.0062 3.07135 29.1926L1.08105 29.7305Z" fill="white"/>
<path d="M2.38001 25.4026C2.55992 25.3817 2.68718 25.2188 2.66703 25.0421C2.64487 24.8496 2.52284 24.7428 2.36359 24.7617C2.13227 24.7888 2.10075 25.1037 2.04277 25.3688C1.91831 25.9159 1.71009 26.2358 1.18072 26.2982C0.635683 26.3624 0.128394 25.9425 0.0609808 25.3548C-0.0189887 24.663 0.380184 24.2838 0.946291 24.1748L1.02904 24.8926C0.854187 24.9133 0.722984 25.0395 0.747337 25.2529C0.766718 25.419 0.882838 25.5687 1.08339 25.5453C1.31471 25.518 1.32297 25.2272 1.36923 24.9529C1.46976 24.3767 1.74826 24.0804 2.23152 24.0232C2.77674 23.9588 3.28303 24.3737 3.35076 24.9614C3.42914 25.6429 3.02112 26.0811 2.4658 26.1463L2.38001 25.4026Z" fill="white"/>
<path d="M0.681131 22.8433L0.672873 23.5449L0 23.5368L0.0254487 21.3483L0.698322 21.3565L0.689895 22.0684L3.12252 22.0974L3.11367 22.8723L0.681131 22.8433Z" fill="white"/>
<path d="M2.48644 19.576L1.65851 19.8265L1.65683 19.837L2.38785 20.3077L2.48644 19.576ZM0.105469 19.6816L0.123333 19.5468L3.50918 18.4587L3.39906 19.2788L3.06013 19.3905L2.89454 20.6207L3.19218 20.8149L3.08194 21.6348L0.105469 19.6816Z" fill="white"/>
<path d="M0.640625 17.328L0.832585 16.5827L3.83881 17.3751L3.64668 18.1201L0.640625 17.328Z" fill="white"/>
<path d="M1.05469 15.6985L1.34819 14.943L3.50501 14.4886L1.78907 13.8067L2.06572 13.0948L4.95768 14.2442L4.66789 14.9901L2.50408 15.4473L4.22508 16.1312L3.94673 16.8477L1.05469 15.6985Z" fill="white"/>
<path d="M5.35034 11.8209L4.49249 11.717L4.48702 11.7259L4.97198 12.4524L5.35034 11.8209ZM3.125 10.9578L3.19479 10.8412L6.72869 11.2087L6.30466 11.9162L5.94947 11.8822L5.31326 12.9436L5.50976 13.2417L5.08574 13.9492L3.125 10.9578Z" fill="white"/>
<path d="M7.21854 9.57489C7.33214 9.43871 7.3264 9.28311 7.2001 9.17487C7.08525 9.07689 6.9167 9.08387 6.80312 9.21983L6.5059 9.57619L6.92108 9.93103L7.21854 9.57489ZM6.24494 8.8735C6.35886 8.73733 6.3479 8.56384 6.21728 8.45211C6.09469 8.34736 5.91941 8.3622 5.80607 8.49837L5.57222 8.77857L6.01109 9.15371L6.24494 8.8735ZM4.57812 8.93024L5.38642 7.96175C5.72053 7.56174 6.28049 7.49147 6.65253 7.80921C6.87399 7.99841 6.93566 8.20878 6.92192 8.48506L6.92977 8.49182C7.31106 8.39231 7.56387 8.43006 7.80909 8.63978C8.13774 8.9202 8.21795 9.44133 7.83706 9.89742L6.95167 10.958L4.57812 8.93024Z" fill="white"/>
<path d="M6.63281 6.57809L7.19699 6.06133L8.84482 7.9012L9.84634 6.98334L10.2844 7.47238L8.71886 8.90723L6.63281 6.57809Z" fill="white"/>
<path d="M8.81641 4.65699L10.5043 3.47049L10.8883 4.02959L9.82541 4.7768L10.1446 5.24118L11.1266 4.55071L11.5047 5.10108L10.523 5.79155L10.8417 6.25594L11.951 5.47578L12.3236 6.01785L10.5891 7.2373L8.81641 4.65699Z" fill="white"/>
<path d="M13.3237 2.72608L12.6887 3.00847L12.418 2.38499L14.3989 1.50466L14.6698 2.12792L14.0252 2.41445L15.0038 4.66787L14.3024 4.97949L13.3237 2.72608Z" fill="white"/>
<path d="M16.8222 2.15687C16.9865 2.1093 17.0476 1.90635 16.9977 1.73024C16.9475 1.55391 16.774 1.43563 16.6099 1.4832L16.0425 1.64775L16.2353 2.32731L16.8222 2.15687ZM15.1328 1.23071L16.3817 0.86824C17.0236 0.682093 17.5531 0.953567 17.7142 1.52248C17.8642 2.05103 17.6843 2.42442 17.273 2.66359L18.3973 3.55221L17.4818 3.8178L16.4009 2.91128L16.7204 4.03886L15.9888 4.25098L15.1328 1.23071Z" fill="white"/>
<path d="M20.3187 2.41097L19.8697 1.66398L19.8594 1.66529L19.594 2.49935L20.3187 2.41097ZM19.6165 0.107152L19.7503 0.0907855L21.6455 3.13003L20.8334 3.22911L20.6407 2.92555L19.4226 3.07416L19.3119 3.4146L18.5 3.51367L19.6165 0.107152Z" fill="white"/>
<path d="M23.0683 2.4908C23.5543 2.51524 23.9437 2.18855 23.9696 1.66023C23.9933 1.17336 23.6861 0.775315 23.1533 0.748692L22.8485 0.733417L22.763 2.47574L23.0683 2.4908ZM22.1221 -0.000483036L23.2029 0.0536368C24.1187 0.099246 24.7939 0.815031 24.7505 1.69929C24.7095 2.53641 24.0427 3.24259 23.0497 3.19283L21.9688 3.13871L22.1221 -0.000483036Z" fill="white"/>
<path d="M25.79 0.280797L27.8066 0.683861L27.6761 1.35207L26.4059 1.09806L26.2976 1.65301L27.4712 1.8876L27.3426 2.54534L26.169 2.31074L26.0605 2.86569L27.3866 3.13084L27.2602 3.77832L25.1875 3.36391L25.79 0.280797Z" fill="white"/>
<path d="M28.6134 3.24723C28.5549 3.42072 28.6453 3.60687 28.8121 3.66404C28.9933 3.72667 29.141 3.66143 29.1924 3.50758C29.2677 3.28477 29.0002 3.12066 28.7886 2.95372C28.3541 2.60477 28.158 2.27721 28.3299 1.76678C28.5068 1.24129 29.0996 0.958902 29.6534 1.14963C30.3047 1.37419 30.4716 1.90186 30.3254 2.46554L29.6495 2.23269C29.706 2.064 29.6499 1.88986 29.4491 1.82046C29.2923 1.76656 29.1089 1.80846 29.0435 2.00159C28.9683 2.22462 29.225 2.3573 29.4495 2.5177C29.9202 2.85682 30.0652 3.23872 29.9084 3.70463C29.7313 4.22991 29.1436 4.51404 28.5899 4.32331C27.9481 4.10203 27.7326 3.54096 27.9127 3.00587L28.6134 3.24723Z" fill="white"/>
<path d="M30.515 4.28403C30.7182 4.3759 30.8004 4.56205 30.7096 4.76784C30.6189 4.97341 30.427 5.03582 30.2235 4.94417C30.0203 4.85229 29.9381 4.66614 30.0289 4.46057C30.1195 4.25479 30.3115 4.19216 30.515 4.28403Z" fill="white"/>
<path d="M32.5334 5.36313C33.0054 5.64639 33.5197 5.46766 33.7863 5.01266C34.0531 4.55765 33.9617 4.01558 33.4892 3.73232C33.0127 3.44644 32.5032 3.62779 32.2365 4.08279C31.9695 4.53779 32.0568 5.07747 32.5334 5.36313ZM33.8562 3.10601C34.6984 3.61098 34.9227 4.60414 34.4499 5.4107C33.977 6.21705 33.008 6.49442 32.1662 5.98944C31.3201 5.48184 31.0999 4.49131 31.573 3.68475C32.0456 2.87818 33.0103 2.59841 33.8562 3.10601Z" fill="white"/>
<path d="M36.2376 6.65424C36.3674 6.76663 36.5683 6.70596 36.6861 6.56695C36.8038 6.4275 36.806 6.2156 36.6761 6.10322L36.2274 5.71521L35.7733 6.25248L36.2376 6.65424ZM36.07 4.71726L37.0575 5.57183C37.5651 6.01091 37.6331 6.60732 37.2526 7.05709C36.8994 7.47499 36.4923 7.52933 36.068 7.31394L35.955 8.75293L35.231 8.12662L35.3827 6.71425L34.6289 7.60571L34.0508 7.10532L36.07 4.71726Z" fill="white"/>
<path d="M39.6898 8.14048C40.0574 8.58763 40.1491 9.03521 40.1027 9.50331L39.3908 9.40729C39.4025 9.11836 39.325 8.83575 39.1365 8.60618C38.7818 8.17518 38.2348 8.16536 37.8329 8.50361C37.3906 8.87547 37.3738 9.42824 37.7047 9.83109C38.0525 10.254 38.4526 10.2651 38.6968 10.0868L38.1306 9.39812L38.6362 8.9728L39.7289 10.3018L39.5019 10.4927C38.7971 11.0857 37.8637 11.1627 37.1417 10.2846C36.5122 9.51946 36.6268 8.50317 37.3395 7.90349C38.052 7.3038 39.0603 7.37516 39.6898 8.14048Z" fill="white"/>
<path d="M8.81008 36.5463L9.33507 37.0169L7.83697 38.706L8.76937 39.5412L8.37104 39.9902L6.91406 38.6844L8.81008 36.5463Z" fill="white"/>
<path d="M10.1643 40.5965C10.5828 40.8843 11.0651 40.7531 11.335 40.3549C11.6048 39.9566 11.5503 39.4565 11.1319 39.1689C10.7095 38.8786 10.2311 39.0123 9.96121 39.4109C9.69129 39.8091 9.74195 40.3065 10.1643 40.5965ZM11.5035 38.6207C12.2495 39.1332 12.4016 40.0531 11.9234 40.7588C11.4447 41.4653 10.5389 41.6578 9.79284 41.1451C9.0427 40.6296 8.89463 39.7126 9.37302 39.0067C9.85123 38.3006 10.7533 38.1052 11.5035 38.6207Z" fill="white"/>
<path d="M14.213 40.1782C14.7034 40.4172 14.955 40.7676 15.0925 41.1903L14.4607 41.3922C14.3643 41.1277 14.1852 40.9025 13.9272 40.7768C13.4668 40.5524 13.0057 40.7526 12.7981 41.1873C12.5907 41.6222 12.723 42.1115 13.1832 42.3356C13.4415 42.4611 13.7272 42.4623 13.992 42.374L14.2164 42.9926C13.8289 43.1382 13.3749 43.1668 12.8976 42.9342C12.0802 42.5362 11.7892 41.6459 12.157 40.8754C12.5251 40.1042 13.3956 39.7801 14.213 40.1782Z" fill="white"/>
<path d="M16.2497 43.2739L16.1519 42.4805L16.1429 42.4774L15.6076 43.0683L16.2497 43.2739ZM16.5214 41.0893L16.6398 41.1272L17.096 44.3818L16.3762 44.1516L16.328 43.8251L15.2486 43.4801L15.028 43.7206L14.3086 43.4903L16.5214 41.0893Z" fill="white"/>
<path d="M18.0428 41.6334L18.7332 41.7611L18.3352 43.9929L19.5606 44.2194L19.455 44.8125L17.5391 44.4584L18.0428 41.6334Z" fill="white"/>
<path d="M20.2112 41.9955L20.9092 42.0647L20.6435 44.9229L19.9453 44.8536L20.2112 41.9955Z" fill="white"/>
<path d="M21.1484 44.9252L22.4514 42.7714L21.3062 42.7678L21.3048 42.1218L23.5527 42.1295V42.1962L22.2018 44.3449L23.5093 44.3492L23.5106 45L21.1486 44.9922L21.1484 44.9252Z" fill="white"/>
<path d="M23.957 42.0874L25.8356 41.8493L25.916 42.4668L24.7328 42.6163L24.7999 43.1294L25.8927 42.9908L25.9719 43.5986L24.879 43.7371L24.9461 44.2502L26.1809 44.0937L26.2588 44.6921L24.3283 44.9365L23.957 42.0874Z" fill="white"/>
<path d="M28.7297 40.9669C29.2291 40.7928 29.6405 40.8574 30.0253 41.0479L29.7145 41.6328C29.4713 41.53 29.2056 41.5059 28.9486 41.5955C28.4674 41.7635 28.2829 42.2333 28.4426 42.6901C28.6175 43.192 29.0835 43.3845 29.5337 43.2276C30.0066 43.0628 30.1446 42.7204 30.0711 42.4517L29.3014 42.7204L29.1009 42.1462L30.5864 41.6282L30.6764 41.8859C30.9557 42.6862 30.7212 43.5187 29.7399 43.8607C28.8846 44.1589 28.054 43.7332 27.7712 42.924C27.4888 42.1146 27.8741 41.2653 28.7297 40.9669Z" fill="white"/>
<path d="M30.4141 40.4173L31.0379 40.0981L32.0682 42.1207L33.1762 41.5536L33.4502 42.0913L31.7183 42.9775L30.4141 40.4173Z" fill="white"/>
<path d="M34.5669 40.6972C34.9852 40.4137 35.0396 39.9137 34.7693 39.5127C34.499 39.1116 34.0164 38.9758 33.5979 39.2591C33.1757 39.5452 33.1253 40.042 33.3956 40.4434C33.6659 40.8447 34.1446 40.9835 34.5669 40.6972ZM33.226 38.7068C33.972 38.2015 34.8784 38.4032 35.3576 39.1142C35.8365 39.8253 35.685 40.7439 34.9391 41.2491C34.1888 41.7576 33.2864 41.5531 32.8075 40.8419C32.3282 40.1307 32.4757 39.215 33.226 38.7068Z" fill="white"/>
<path d="M36.9954 38.7062C37.1158 38.5971 37.1294 38.4552 37.0269 38.3413C36.9343 38.2383 36.7799 38.223 36.6595 38.3319L36.345 38.6174L36.6809 38.9913L36.9954 38.7062ZM36.1922 37.9479C36.3126 37.8389 36.3238 37.68 36.2181 37.5624C36.1191 37.452 35.9573 37.4434 35.8372 37.5526L35.5897 37.7769L35.945 38.1721L36.1922 37.9479ZM34.6641 37.7889L35.5196 37.0131C35.873 36.6931 36.3924 36.6999 36.6934 37.0345C36.8724 37.234 36.9031 37.4324 36.8571 37.6811L36.8636 37.6881C37.2234 37.6462 37.4497 37.7123 37.648 37.9332C37.9137 38.2289 37.9236 38.711 37.5207 39.0762L36.584 39.9258L34.6641 37.7889Z" fill="white"/>
<path d="M38.7923 36.5813L38.03 36.3513L38.0235 36.3586L38.352 37.0902L38.7923 36.5813ZM36.9062 35.4499L36.9874 35.356L40.1367 36.2485L39.6434 36.8188L39.3267 36.7317L38.5861 37.5867L38.7188 37.8868L38.225 38.457L36.9062 35.4499Z" fill="white"/>
<path d="M37.9531 34.3346L38.3434 33.7511L40.2178 35.0251L40.9111 33.9889L41.4095 34.3276L40.3254 35.9473L37.9531 34.3346Z" fill="white"/>
<path d="M39.1016 32.5936L39.4275 31.9711L41.4251 33.0367L42.0041 31.9316L42.5352 32.2151L41.6301 33.9424L39.1016 32.5936Z" fill="white"/>
<path d="M41.4954 31.1087L39.7422 31.4744L40.0461 30.7406L41.0572 30.5448L40.4877 29.6754L40.79 28.9463L41.7627 30.4634L43.0376 31.002L42.7701 31.6475L41.4954 31.1087Z" fill="white"/>
</svg>
